<?xml version="1.0" encoding="utf-8"?>
<!-- Generator: Adobe Illustrator 27.5.0, SVG Export Plug-In . SVG Version: 6.00 Build 0)  -->
<svg version="1.1" id="Layer_1" xmlns="http://www.w3.org/2000/svg" xmlns:xlink="http://www.w3.org/1999/xlink" x="0px" y="0px"
	 viewBox="0 0 1190.552 907.087" style="enable-background:new 0 0 1190.552 907.087;" xml:space="preserve">
<g>
	<g>
		<path d="M64.84,57.159c1.307,0.62,2.407-0.208,2.476-0.964c0,0,2.156,3.351-0.272,6.056c-2.265,2.518-4.089,1.032-4.332,0.807
			c0.222,0.248,1.707,2.071-0.805,4.33c-2.709,2.434-6.058,0.274-6.058,0.274c0.751-0.064,1.584-1.169,0.964-2.476
			c-0.621-1.308,0.619-2.273,0.619-2.273c-2.916,2.227-5.503-2.75-5.158-5.575c0.331-2.77-0.035-4.7-0.05-4.759l-0.003-0.003
			l0.007-0.002l-0.002-0.003l0.003,0.004c0.063,0.011,1.993,0.376,4.767,0.041c2.821-0.341,7.795,2.249,5.573,5.16
			C62.569,57.776,63.528,56.543,64.84,57.159L64.84,57.159z"/>
		<path d="M79.912,91.761c3.161-1.147,1.222-9.81-5.878-17.445c7.63,7.105,16.29,9.047,17.442,5.881
			c1.236-3.396-5.019-5.945-5.019-5.945c9.874,0.466,18.595,4.254,18.595,4.254c13.355,5.946,7.187,14.274,7.187,14.274
			c3.228-8.178-5.797-12.884-5.797-12.884c4.48,3.854,2.938,7.869-0.151,8.33c-3.091,0.469-2.163,2.469-2.391,4.706
			c-0.232,2.235-5.714,0.157-5.714,0.157c3.395,9.415,14.898,7.332,18.519-0.151c3.627-7.488-4.784-14.047-4.784-14.047
			c17.138,2.464,25.935,14.809,24.702,22.692c-1.233,7.862-7.726,11.727-11.969,10.106c-4.235-1.625-3.697-4.479-3.697-4.479
			c7.251,2.933,8.755-8.688,1.348-9.611c-7.413-0.918-12.039,12.039-1.389,17.359c10.654,5.331,23.382-8.558,16.552-23.031
			c-3.78-8.01-12.2-13.183-22.467-16.563c9.46,0.756,16.508-6.95,14.539-12.781c-2.38-6.999-9.151-6.366-10.421-2.781
			c-1.275,3.596,2.434,4.748,2.434,4.748s4.511,0.003,0.058,5.382c-3.438,4.151-9.045,4.213-11.428,4.018
			c-7.03-1.863-14.655-3.027-22.107-3.783c-17.024-1.718-28.722-10.979-32.276-14.13c-0.369-0.369-0.739-0.723-1.125-1.092
			c0,0,0.176,0.176,0.475,0.485c-0.315-0.292-0.491-0.469-0.491-0.469c0.372,0.383,0.728,0.751,1.091,1.125
			c3.153,3.554,12.41,15.255,14.131,32.276c0.756,7.452,1.919,15.077,3.783,22.107c0.195,2.382,0.134,7.99-4.017,11.428
			c-5.385,4.458-5.382-0.059-5.382-0.059s-1.152-3.708-4.751-2.431c-3.585,1.269-4.221,8.043,2.782,10.421
			c5.828,1.973,13.539-5.081,12.786-14.544c3.385,10.264,8.552,18.689,16.562,22.47c14.474,6.83,28.365-5.9,23.037-16.558
			c-5.323-10.646-18.291-6.01-17.365,1.395c0.929,7.401,12.546,5.901,9.617-1.354c0,0,2.851-0.535,4.472,3.703
			c1.616,4.248-2.24,10.732-10.105,11.968c-7.882,1.231-20.23-7.563-22.698-24.696c0,0,6.564,8.406,14.05,4.782
			c7.485-3.624,9.572-15.13,0.159-18.528c0,0,2.074,5.488-0.162,5.72c-2.238,0.229-4.241-0.696-4.704,2.389
			c-0.46,3.088-4.478,4.634-8.339,0.159c0,0,4.707,9.024,12.89,5.791c0,0-8.328,6.169-14.279-7.181c0,0-3.781-8.73-4.247-18.603
			C73.966,86.742,76.519,92.993,79.912,91.761L79.912,91.761z M62.776,63.058c15.88,14.987,22.986,16.213,22.986,16.213
			c-3.465,0.284-12.161-5.733-13.289-6.526c-0.036-0.036-0.069-0.069-0.105-0.106c0,0,0.016,0.028,0.041,0.054
			c-0.037-0.014-0.059-0.036-0.059-0.036c0.036,0.036,0.07,0.069,0.106,0.105c0.787,1.133,6.811,9.823,6.531,13.283
			C78.988,86.044,77.764,78.938,62.776,63.058L62.776,63.058z"/>
		<path d="M147.816,128.368c-6.196,4.197-16.781,0.27-21.863-2.057l-0.021-0.021c-0.003,0.009,0,0.012,0.003,0.015
			c-0.003-0.003-0.006-0.006-0.015-0.003l0.021,0.022c2.326,5.081,6.254,15.666,2.056,21.862
			c-6.523,9.631-12.583,0.622-17.393,7.769c0,0-2.02,5.272,3.265,6.984c2.554,0.832,10.085,1.714,15.839-3.883
			c4.704-4.576,9.343-12.438,3.702-25.276c12.837,5.643,20.7,1.002,25.279-3.704c5.596-5.754,4.709-13.28,3.886-15.842
			c-1.711-5.285-6.99-3.259-6.99-3.259C148.438,115.785,157.451,121.842,147.816,128.368L147.816,128.368z M132.647,133.005
			l-0.016-0.015c-0.002,0.008,0,0.012,0.003,0.015c-0.003-0.003-0.006-0.007-0.015-0.003l0.016,0.015
			c1.538,4.857,3.485,14.498-2.157,21.697c0,0,6.33-12.17-1.069-24.935c12.765,7.398,24.927,1.075,24.927,1.075
			C147.144,136.491,137.504,134.543,132.647,133.005L132.647,133.005z"/>
		<g>
			<path d="M175.774,50.001c-3.319-7.979,0.885-13.517,0.885-13.517c-3.207,7.021,2.158,19.419,2.158,19.419
				s-0.746-4.722,3.899-9.688c4.653-4.979,1.448-9.909-1.136-12.703c-2.587-2.796,1.026-5.23,1.026-5.23
				c-12.023,1.866-11.877,15.937-8.244,21.82c3.634,5.883,2.601,11.351,2.601,11.351S179.09,57.979,175.774,50.001L175.774,50.001z"
				/>
			<path d="M146.523,98.102c-0.531-19.758-9.622-13.231-11.817-20.513c-2.197-7.272-6.066-3.104-6.066-3.104
				s4.485-10.438,18.494-8.105c14.01,2.332,19.72,23.138,2.839,41.546c0,0,14.429-17.875,5.301-33.406
				c0,0,8.349,15.854-9.539,38.112c0,0,16.943-8.632,20.097-29.334c3.155-20.693-4.374-22.827,3.601-30.84
				c0,0-0.667,1.53,1.962,2.797c2.623,1.27,5.514,4.796,4.088,11.55c0,0-0.301-6.11-4.186-7.857c0,0,4.508,3.612,3.057,12.571
				c0,0,5.861-25.044,24.686-28.374c18.836-3.323,25.04,7.938,25.107,14.605c0.067,6.668-1.736,8.928,2.418,10.86
				c0,0-11.795,3.761-14.115-3.681c-2.323-7.441-0.102-16.588-9.523-16.923c0,0,7.962-2.841,10.847,8.827
				c0,0,0.736-5.07-3.104-8.146c-3.846-3.075-16.324-5.835-26.855,7.642c-7.998,10.222-10.745,24.025-10.745,24.025
				s4.456-1.123,6.749-9.817c2.301-8.692,6.024-13.92,13.101-12.742c7.077,1.178,6.443-2.615,6.443-2.615s4.426,3.163,1.447,10.422
				c-2.979,7.26-15.462,6.629-20.504,10.778c0,0,3.12-5.172,12.521-6.756c0,0-8.194-2.677-14.847,8.489
				c0,0,11.058-6.826,22.924,0.078c11.868,6.908,11.64,23.741,0.74,27.484c-10.904,3.74-22.617-7.286-13.335-16.143
				c0,0-3.158,5.454,0.315,5.963c3.477,0.5,2.851-5.354,8.25-3.83c5.4,1.522,7.198-4.725,3.646-8.789c0,0,5.459,3.16,1.754,10.312
				c-3.704,7.152-12.448,3.439-12.448,3.439s9.046,5.841,13.656-3.116c4.796-9.286-5.453-16.918-15.499-16.015
				c-10.045,0.903-18.434,9.75-24.299,20.583c-5.865,10.832-19.157,22.818-38.151,25.229
				C125.533,123.31,147.045,117.854,146.523,98.102L146.523,98.102z"/>
		</g>
		<g>
			<path d="M49.751,176.024c-7.98-3.319-13.517,0.885-13.517,0.885c7.02-3.207,19.419,2.158,19.419,2.158s-4.721-0.746-9.687,3.899
				c-4.98,4.653-9.909,1.448-12.704-1.137c-2.795-2.586-5.23,1.026-5.23,1.026c1.867-12.023,15.936-11.877,21.82-8.244
				c5.883,3.635,11.351,2.602,11.351,2.602S57.73,179.34,49.751,176.024L49.751,176.024z"/>
			<path d="M97.852,146.772c-19.758-0.531-13.231-9.621-20.513-11.817c-7.273-2.197-3.104-6.066-3.104-6.066
				s-10.439,4.485-8.105,18.495c2.332,14.01,23.138,19.719,41.546,2.838c0,0-17.876,14.429-33.406,5.302
				c0,0,15.853,8.348,38.112-9.539c0,0-8.632,16.942-29.335,20.097c-20.693,3.155-22.826-4.373-30.839,3.602
				c0,0,1.53-0.667,2.797,1.962c1.27,2.623,4.796,5.514,11.55,4.088c0,0-6.11-0.301-7.857-4.187c0,0,3.612,4.508,12.572,3.057
				c0,0-25.044,5.861-28.375,24.687c-3.323,18.837,7.938,25.039,14.606,25.107c6.668,0.067,8.927-1.736,10.86,2.418
				c0,0,3.761-11.795-3.68-14.115c-7.442-2.322-16.588-0.103-16.923-9.523c0,0-2.841,7.962,8.827,10.847c0,0-5.07,0.736-8.147-3.105
				c-3.075-3.846-5.834-16.323,7.642-26.854c10.221-7.998,24.025-10.745,24.025-10.745s-1.123,4.456-9.817,6.749
				c-8.692,2.301-13.92,6.023-12.743,13.102c1.178,7.076-2.615,6.442-2.615,6.442s3.163,4.426,10.422,1.448
				c7.259-2.98,6.629-15.463,10.778-20.505c0,0-5.171,3.119-6.755,12.52c0,0-2.677-8.194,8.489-14.848
				c0,0-6.826,11.058,0.078,22.924c6.908,11.868,23.742,11.64,27.484,0.74c3.741-10.904-7.286-22.617-16.144-13.335
				c0,0,5.455-3.158,5.963,0.315c0.5,3.477-5.355,2.851-3.831,8.25c1.523,5.4-4.724,7.198-8.789,3.645c0,0,3.16,5.459,10.312,1.755
				c7.152-3.705,3.439-12.448,3.439-12.448s5.841,9.046-3.116,13.656c-9.287,4.797-16.919-5.453-16.015-15.498
				c0.904-10.045,9.751-18.435,20.584-24.299c10.832-5.865,22.818-19.157,25.229-38.151
				C123.059,125.783,117.603,147.296,97.852,146.772L97.852,146.772z"/>
		</g>
	</g>
	<g>
		<path d="M64.84,849.794c1.307-0.619,2.407,0.209,2.476,0.965c0,0,2.156-3.352-0.272-6.057c-2.265-2.517-4.089-1.031-4.332-0.807
			c0.222-0.247,1.707-2.07-0.805-4.329c-2.709-2.434-6.058-0.274-6.058-0.274c0.751,0.064,1.584,1.169,0.964,2.476
			c-0.621,1.308,0.619,2.273,0.619,2.273c-2.916-2.228-5.503,2.749-5.158,5.575c0.331,2.769-0.035,4.699-0.05,4.758l-0.003,0.004
			l0.007,0.002l-0.002,0.002l0.003-0.003c0.063-0.011,1.993-0.376,4.767-0.041c2.821,0.341,7.795-2.249,5.573-5.161
			C62.569,849.177,63.528,850.411,64.84,849.794L64.84,849.794z"/>
		<path d="M79.912,815.193c-3.393-1.233-5.945,5.019-5.945,5.019c0.466-9.873,4.247-18.603,4.247-18.603
			c5.951-13.351,14.279-7.181,14.279-7.181c-8.183-3.234-12.89,5.791-12.89,5.791c3.861-4.475,7.879-2.93,8.339,0.158
			c0.463,3.086,2.466,2.16,4.704,2.39c2.235,0.232,0.162,5.72,0.162,5.72c9.414-3.398,7.326-14.904-0.159-18.529
			c-7.486-3.623-14.05,4.783-14.05,4.783c2.468-17.133,14.816-25.928,22.698-24.697c7.865,1.236,11.721,7.721,10.105,11.969
			c-1.621,4.238-4.472,3.703-4.472,3.703c2.93-7.255-8.688-8.756-9.617-1.354c-0.926,7.404,12.041,12.041,17.365,1.394
			c5.329-10.658-8.563-23.388-23.037-16.559c-8.01,3.781-13.177,12.207-16.562,22.471c0.753-9.463-6.958-16.517-12.786-14.545
			c-7.003,2.379-6.367,9.152-2.782,10.422c3.599,1.277,4.751-2.431,4.751-2.431s-0.003-4.517,5.382-0.06
			c4.151,3.438,4.212,9.047,4.017,11.429c-1.864,7.03-3.027,14.655-3.783,22.107c-1.721,17.021-10.978,28.722-14.131,32.276
			c-0.363,0.374-0.719,0.742-1.091,1.125c0,0,0.176-0.177,0.491-0.469c-0.299,0.309-0.475,0.484-0.475,0.484
			c0.385-0.368,0.756-0.723,1.125-1.091c3.554-3.151,15.252-12.412,32.276-14.13c7.453-0.756,15.078-1.92,22.107-3.783
			c2.383-0.195,7.99-0.135,11.428,4.018c4.453,5.379-0.058,5.381-0.058,5.381s-3.708,1.152-2.434,4.748
			c1.269,3.586,8.041,4.219,10.421-2.781c1.97-5.83-5.078-13.537-14.539-12.78c10.267-3.382,18.687-8.554,22.467-16.563
			c6.83-14.475-5.898-28.362-16.552-23.031c-10.65,5.32-6.023,18.277,1.389,17.359c7.407-0.924,5.903-12.544-1.348-9.611
			c0,0-0.538-2.854,3.697-4.479c4.243-1.621,10.735,2.244,11.969,10.106c1.233,7.885-7.563,20.229-24.702,22.693
			c0,0,8.411-6.559,4.784-14.047c-3.621-7.483-15.125-9.566-18.519-0.151c0,0,5.482-2.078,5.714,0.157
			c0.228,2.236-0.701,4.237,2.391,4.705c3.088,0.461,4.631,4.477,0.151,8.331c0,0,9.025-4.706,5.797-12.884
			c0,0,6.168,8.328-7.187,14.273c0,0-8.721,3.789-18.595,4.255c0,0,6.255-2.55,5.019-5.945c-1.151-3.167-9.812-1.226-17.442,5.881
			C81.133,825.003,83.072,816.341,79.912,815.193L79.912,815.193z M62.776,843.896c14.988-15.879,16.212-22.985,16.212-22.985
			c0.279,3.46-5.745,12.149-6.531,13.282c-0.036,0.037-0.07,0.07-0.106,0.105c0,0,0.022-0.021,0.059-0.035
			c-0.025,0.025-0.041,0.053-0.041,0.053c0.036-0.036,0.069-0.069,0.105-0.106c1.127-0.793,9.824-6.81,13.289-6.526
			C85.762,827.684,78.656,828.909,62.776,843.896L62.776,843.896z"/>
		<path d="M147.816,778.586c9.634,6.526,0.621,12.583,7.768,17.393c0,0,5.279,2.026,6.99-3.259
			c0.824-2.563,1.711-10.088-3.886-15.842c-4.579-4.707-12.441-9.347-25.279-3.704c5.642-12.838,1.002-20.7-3.702-25.276
			c-5.754-5.597-13.286-4.715-15.839-3.883c-5.284,1.711-3.265,6.984-3.265,6.984c4.81,7.146,10.87-1.862,17.393,7.768
			c4.198,6.197,0.27,16.781-2.056,21.863l-0.021,0.021c0.009,0.003,0.012,0,0.015-0.004c-0.003,0.004-0.006,0.007-0.003,0.016
			l0.021-0.021C131.035,778.315,141.62,774.388,147.816,778.586L147.816,778.586z M132.647,773.948
			c4.857-1.537,14.497-3.485,21.69,2.15c0,0-12.163-6.322-24.927,1.076c7.398-12.766,1.069-24.935,1.069-24.935
			c5.642,7.199,3.695,16.839,2.157,21.696l-0.016,0.016c0.009,0.004,0.012,0,0.015-0.003c-0.003,0.003-0.006,0.007-0.003,0.015
			L132.647,773.948L132.647,773.948z"/>
		<g>
			<path d="M175.774,856.952c-3.319,7.981,0.885,13.518,0.885,13.518c-3.207-7.021,2.158-19.419,2.158-19.419
				s-0.746,4.722,3.899,9.687c4.653,4.98,1.448,9.91-1.136,12.704c-2.587,2.796,1.026,5.23,1.026,5.23
				c-12.023-1.866-11.877-15.937-8.244-21.82c3.634-5.883,2.601-11.351,2.601-11.351S179.09,848.974,175.774,856.952
				L175.774,856.952z"/>
			<path d="M146.523,808.852c-0.531,19.758-9.622,13.231-11.817,20.512c-2.197,7.273-6.066,3.104-6.066,3.104
				s4.485,10.439,18.494,8.106c14.01-2.333,19.72-23.138,2.839-41.546c0,0,14.429,17.875,5.301,33.406
				c0,0,8.349-15.854-9.539-38.113c0,0,16.943,8.633,20.097,29.335c3.155,20.693-4.374,22.827,3.601,30.839
				c0,0-0.667-1.529,1.962-2.797c2.623-1.269,5.514-4.795,4.088-11.549c0,0-0.301,6.109-4.186,7.856c0,0,4.508-3.612,3.057-12.571
				c0,0,5.861,25.044,24.686,28.374c18.836,3.323,25.04-7.938,25.107-14.607c0.067-6.667-1.736-8.927,2.418-10.859
				c0,0-11.795-3.762-14.115,3.68c-2.323,7.442-0.102,16.589-9.523,16.924c0,0,7.962,2.84,10.847-8.828c0,0,0.736,5.07-3.104,8.148
				c-3.846,3.075-16.324,5.835-26.855-7.642c-7.998-10.222-10.745-24.025-10.745-24.025s4.456,1.123,6.749,9.816
				c2.301,8.692,6.024,13.921,13.101,12.743c7.077-1.179,6.443,2.614,6.443,2.614s4.426-3.162,1.447-10.422
				c-2.979-7.259-15.462-6.629-20.504-10.777c0,0,3.12,5.172,12.521,6.756c0,0-8.194,2.677-14.847-8.489
				c0,0,11.058,6.826,22.924-0.078c11.868-6.908,11.64-23.741,0.74-27.484c-10.904-3.741-22.617,7.286-13.335,16.144
				c0,0-3.158-5.455,0.315-5.963c3.477-0.5,2.851,5.354,8.25,3.83c5.4-1.523,7.198,4.725,3.646,8.789c0,0,5.459-3.16,1.754-10.313
				c-3.704-7.151-12.448-3.438-12.448-3.438s9.046-5.841,13.656,3.116c4.796,9.286-5.453,16.918-15.499,16.015
				c-10.045-0.903-18.434-9.751-24.299-20.583c-5.865-10.832-19.157-22.818-38.151-25.23
				C125.533,783.644,147.045,789.101,146.523,808.852L146.523,808.852z"/>
		</g>
		<g>
			<path d="M49.751,730.93c-7.98,3.319-13.517-0.886-13.517-0.886c7.02,3.208,19.419-2.158,19.419-2.158s-4.721,0.746-9.687-3.898
				c-4.98-4.653-9.909-1.448-12.704,1.137c-2.795,2.586-5.23-1.026-5.23-1.026c1.867,12.023,15.936,11.877,21.82,8.243
				c5.883-3.634,11.351-2.602,11.351-2.602S57.73,727.614,49.751,730.93L49.751,730.93z"/>
			<path d="M97.852,760.181c-19.758,0.531-13.231,9.622-20.513,11.818c-7.273,2.197-3.104,6.066-3.104,6.066
				s-10.439-4.486-8.105-18.495c2.332-14.01,23.138-19.72,41.546-2.839c0,0-17.876-14.428-33.406-5.301
				c0,0,15.853-8.348,38.112,9.539c0,0-8.632-16.943-29.335-20.098c-20.693-3.154-22.826,4.374-30.839-3.601
				c0,0,1.53,0.667,2.797-1.962c1.27-2.623,4.796-5.514,11.55-4.088c0,0-6.11,0.301-7.857,4.187c0,0,3.612-4.508,12.572-3.058
				c0,0-25.044-5.86-28.375-24.686c-3.323-18.837,7.938-25.039,14.606-25.107c6.668-0.067,8.927,1.736,10.86-2.418
				c0,0,3.761,11.795-3.68,14.115c-7.442,2.322-16.588,0.102-16.923,9.522c0,0-2.841-7.962,8.827-10.847c0,0-5.07-0.736-8.147,3.104
				c-3.075,3.846-5.834,16.324,7.642,26.855c10.221,7.998,24.025,10.744,24.025,10.744s-1.123-4.455-9.817-6.748
				c-8.692-2.301-13.92-6.023-12.743-13.102c1.178-7.076-2.615-6.443-2.615-6.443s3.163-4.426,10.422-1.447
				c7.259,2.979,6.629,15.463,10.778,20.505c0,0-5.171-3.12-6.755-12.52c0,0-2.677,8.193,8.489,14.848
				c0,0-6.826-11.059,0.078-22.924c6.908-11.868,23.742-11.641,27.484-0.74c3.741,10.904-7.286,22.617-16.144,13.335
				c0,0,5.455,3.158,5.963-0.315c0.5-3.477-5.355-2.852-3.831-8.25c1.523-5.4-4.724-7.199-8.789-3.646c0,0,3.16-5.459,10.312-1.754
				c7.152,3.705,3.439,12.447,3.439,12.447s5.841-9.045-3.116-13.656c-9.287-4.796-16.919,5.453-16.015,15.499
				c0.904,10.045,9.751,18.435,20.584,24.299c10.832,5.864,22.818,19.157,25.229,38.151
				C123.059,781.171,117.603,759.658,97.852,760.181L97.852,760.181z"/>
		</g>
	</g>
	<g>
		<path d="M1125.084,57.159c-1.307,0.62-2.406-0.208-2.477-0.964c0,0-2.156,3.351,0.273,6.056c2.266,2.518,4.088,1.032,4.332,0.807
			c-0.223,0.248-1.707,2.071,0.805,4.33c2.709,2.434,6.059,0.274,6.059,0.274c-0.752-0.064-1.584-1.169-0.965-2.476
			c0.621-1.308-0.619-2.273-0.619-2.273c2.916,2.227,5.504-2.75,5.158-5.575c-0.332-2.77,0.035-4.7,0.049-4.759l0.004-0.003
			l-0.006-0.002l0.002-0.003l-0.004,0.004c-0.063,0.011-1.992,0.376-4.768,0.041c-2.82-0.341-7.795,2.249-5.572,5.16
			C1127.355,57.776,1126.396,56.543,1125.084,57.159L1125.084,57.159z"/>
		<path d="M1110.014,91.761c3.393,1.232,5.945-5.018,5.945-5.018c-0.467,9.873-4.248,18.603-4.248,18.603
			c-5.949,13.35-14.277,7.181-14.277,7.181c8.182,3.233,12.889-5.791,12.889-5.791c-3.861,4.475-7.879,2.929-8.338-0.159
			c-0.465-3.085-2.467-2.159-4.705-2.389c-2.234-0.231-0.162-5.72-0.162-5.72c-9.412,3.398-7.326,14.904,0.16,18.528
			c7.484,3.624,14.049-4.782,14.049-4.782c-2.469,17.133-14.816,25.928-22.697,24.696c-7.865-1.235-11.721-7.72-10.105-11.968
			c1.621-4.238,4.473-3.703,4.473-3.703c-2.93,7.255,8.688,8.755,9.615,1.354c0.928-7.404-12.041-12.041-17.363-1.395
			c-5.33,10.657,8.563,23.388,23.035,16.558c8.01-3.78,13.178-12.206,16.563-22.47c-0.754,9.463,6.957,16.517,12.785,14.544
			c7.004-2.378,6.367-9.151,2.781-10.421c-3.598-1.277-4.75,2.431-4.75,2.431s0.002,4.517-5.383,0.059
			c-4.15-3.438-4.213-9.046-4.018-11.428c1.865-7.03,3.027-14.655,3.783-22.107c1.723-17.021,10.979-28.723,14.131-32.276
			c0.363-0.374,0.721-0.742,1.092-1.125c0,0-0.176,0.177-0.492,0.469c0.299-0.31,0.475-0.485,0.475-0.485
			c-0.385,0.369-0.756,0.723-1.123,1.092c-3.555,3.151-15.254,12.412-32.277,14.13c-7.453,0.756-15.078,1.92-22.107,3.783
			c-2.383,0.195-7.99,0.134-11.428-4.018c-4.453-5.379,0.058-5.382,0.058-5.382s3.707-1.152,2.434-4.748
			c-1.27-3.585-8.041-4.218-10.422,2.781c-1.969,5.831,5.078,13.537,14.539,12.781c-10.268,3.381-18.688,8.554-22.467,16.563
			c-6.83,14.474,5.898,28.362,16.553,23.031c10.648-5.32,6.023-18.277-1.391-17.359c-7.406,0.924-5.902,12.544,1.348,9.611
			c0,0,0.539,2.854-3.695,4.479c-4.244,1.62-10.736-2.244-11.969-10.106c-1.234-7.884,7.563-20.229,24.701-22.692
			c0,0-8.412,6.559-4.785,14.047c3.621,7.483,15.125,9.566,18.52,0.151c0,0-5.482,2.078-5.713-0.157
			c-0.229-2.237,0.699-4.237-2.391-4.706c-3.09-0.461-4.631-4.476-0.152-8.33c0,0-9.023,4.706-5.797,12.884
			c0,0-6.168-8.328,7.188-14.274c0,0,8.721-3.788,18.596-4.254c0,0-6.256,2.55-5.02,5.945c1.15,3.166,9.811,1.225,17.441-5.881
			C1108.791,81.951,1106.852,90.613,1110.014,91.761L1110.014,91.761z M1127.148,63.058c-14.988,15.88-16.213,22.986-16.213,22.986
			c-0.279-3.46,5.746-12.15,6.531-13.283c0.037-0.036,0.07-0.069,0.107-0.105c0,0-0.023,0.022-0.059,0.036
			c0.025-0.025,0.041-0.054,0.041-0.054c-0.037,0.037-0.07,0.07-0.105,0.106c-1.127,0.793-9.824,6.811-13.289,6.526
			C1104.162,79.271,1111.268,78.045,1127.148,63.058L1127.148,63.058z"/>
		<path d="M1042.107,128.368c-9.633-6.526-0.621-12.583-7.768-17.393c0,0-5.279-2.026-6.99,3.259
			c-0.824,2.562-1.711,10.088,3.887,15.842c4.578,4.706,12.441,9.347,25.277,3.704c-5.641,12.838-1.002,20.7,3.703,25.276
			c5.754,5.597,13.285,4.715,15.838,3.883c5.285-1.712,3.266-6.984,3.266-6.984c-4.811-7.146-10.871,1.862-17.393-7.769
			c-4.199-6.196-0.27-16.781,2.055-21.862l0.021-0.022c-0.008-0.003-0.012,0-0.016,0.003c0.004-0.003,0.008-0.006,0.004-0.015
			l-0.021,0.021C1058.889,128.638,1048.305,132.565,1042.107,128.368L1042.107,128.368z M1057.277,133.005
			c-4.857,1.538-14.496,3.486-21.689-2.15c0,0,12.162,6.323,24.928-1.075c-7.398,12.765-1.068,24.935-1.068,24.935
			c-5.643-7.199-3.695-16.84-2.158-21.697l0.016-0.015c-0.008-0.004-0.012,0-0.014,0.003c0.002-0.003,0.006-0.007,0.002-0.015
			L1057.277,133.005L1057.277,133.005z"/>
		<g>
			<path d="M1014.15,50.001c3.32-7.979-0.885-13.517-0.885-13.517c3.207,7.021-2.158,19.419-2.158,19.419s0.746-4.722-3.898-9.688
				c-4.654-4.979-1.449-9.909,1.135-12.703c2.588-2.796-1.025-5.23-1.025-5.23c12.023,1.866,11.877,15.937,8.244,21.82
				c-3.635,5.883-2.602,11.351-2.602,11.351S1010.834,57.979,1014.15,50.001L1014.15,50.001z"/>
			<path d="M1043.402,98.102c0.531-19.758,9.621-13.231,11.816-20.513c2.197-7.272,6.066-3.104,6.066-3.104
				s-4.484-10.438-18.494-8.105c-14.01,2.332-19.719,23.138-2.838,41.546c0,0-14.43-17.875-5.301-33.406
				c0,0-8.35,15.854,9.539,38.112c0,0-16.943-8.632-20.098-29.334c-3.156-20.693,4.373-22.827-3.602-30.84
				c0,0,0.668,1.53-1.961,2.797c-2.623,1.27-5.514,4.796-4.088,11.55c0,0,0.301-6.11,4.186-7.857c0,0-4.508,3.612-3.057,12.571
				c0,0-5.861-25.044-24.686-28.374c-18.838-3.323-25.041,7.938-25.107,14.605c-0.068,6.668,1.736,8.928-2.418,10.86
				c0,0,11.795,3.761,14.113-3.681c2.324-7.441,0.103-16.588,9.523-16.923c0,0-7.961-2.841-10.846,8.827c0,0-0.736-5.07,3.104-8.146
				c3.846-3.075,16.324-5.835,26.855,7.642c7.996,10.222,10.744,24.025,10.744,24.025s-4.457-1.123-6.748-9.817
				c-2.303-8.692-6.025-13.92-13.102-12.742c-7.078,1.178-6.443-2.615-6.443-2.615s-4.426,3.163-1.447,10.422
				c2.979,7.26,15.461,6.629,20.504,10.778c0,0-3.119-5.172-12.519-6.756c0,0,8.193-2.677,14.846,8.489
				c0,0-11.057-6.826-22.924,0.078c-11.867,6.908-11.639,23.741-0.738,27.484c10.904,3.74,22.617-7.286,13.334-16.143
				c0,0,3.158,5.454-0.314,5.963c-3.479,0.5-2.852-5.354-8.252-3.83c-5.398,1.522-7.197-4.725-3.645-8.789
				c0,0-5.459,3.16-1.754,10.312c3.703,7.152,12.447,3.439,12.447,3.439s-9.047,5.841-13.656-3.116
				c-4.797-9.286,5.453-16.918,15.498-16.015c10.045,0.903,18.434,9.75,24.299,20.583c5.865,10.832,19.158,22.818,38.152,25.229
				C1064.393,123.31,1042.879,117.854,1043.402,98.102L1043.402,98.102z"/>
		</g>
		<g>
			<path d="M1140.174,176.024c7.98-3.319,13.518,0.885,13.518,0.885c-7.021-3.207-19.42,2.158-19.42,2.158s4.721-0.746,9.688,3.899
				c4.981,4.653,9.908,1.448,12.703-1.137c2.795-2.586,5.23,1.026,5.23,1.026c-1.867-12.023-15.936-11.877-21.82-8.244
				c-5.883,3.635-11.35,2.602-11.35,2.602S1132.195,179.34,1140.174,176.024L1140.174,176.024z"/>
			<path d="M1092.072,146.772c19.758-0.531,13.232-9.621,20.514-11.817c7.273-2.197,3.104-6.066,3.104-6.066
				s10.439,4.485,8.105,18.495c-2.332,14.01-23.137,19.719-41.547,2.838c0,0,17.877,14.429,33.406,5.302
				c0,0-15.852,8.348-38.111-9.539c0,0,8.631,16.942,29.334,20.097c20.693,3.155,22.826-4.373,30.84,3.602
				c0,0-1.531-0.667-2.797,1.962c-1.27,2.623-4.797,5.514-11.551,4.088c0,0,6.111-0.301,7.857-4.187c0,0-3.611,4.508-12.572,3.057
				c0,0,25.045,5.861,28.375,24.687c3.322,18.837-7.938,25.039-14.605,25.107c-6.668,0.067-8.928-1.736-10.859,2.418
				c0,0-3.762-11.795,3.68-14.115c7.441-2.322,16.588-0.103,16.922-9.523c0,0,2.842,7.962-8.826,10.847c0,0,5.07,0.736,8.146-3.105
				c3.074-3.846,5.834-16.323-7.643-26.854c-10.221-7.998-24.023-10.745-24.023-10.745s1.123,4.456,9.816,6.749
				c8.691,2.301,13.92,6.023,12.742,13.102c-1.178,7.076,2.615,6.442,2.615,6.442s-3.162,4.426-10.422,1.448
				c-7.26-2.98-6.629-15.463-10.777-20.505c0,0,5.17,3.119,6.754,12.52c0,0,2.678-8.194-8.488-14.848c0,0,6.826,11.058-0.078,22.924
				c-6.908,11.868-23.742,11.64-27.484,0.74c-3.74-10.904,7.285-22.617,16.145-13.335c0,0-5.455-3.158-5.965,0.315
				c-0.5,3.477,5.355,2.851,3.832,8.25c-1.523,5.4,4.725,7.198,8.789,3.645c0,0-3.16,5.459-10.313,1.755
				c-7.152-3.705-3.439-12.448-3.439-12.448s-5.842,9.046,3.115,13.656c9.287,4.797,16.92-5.453,16.016-15.498
				c-0.904-10.045-9.75-18.435-20.584-24.299c-10.832-5.865-22.818-19.157-25.229-38.151
				C1066.865,125.783,1072.322,147.296,1092.072,146.772L1092.072,146.772z"/>
		</g>
	</g>
	<g>
		<path d="M1125.084,849.794c-1.307-0.619-2.406,0.209-2.477,0.965c0,0-2.156-3.352,0.273-6.057
			c2.266-2.517,4.088-1.031,4.332-0.807c-0.223-0.247-1.707-2.07,0.805-4.329c2.709-2.434,6.059-0.274,6.059-0.274
			c-0.752,0.064-1.584,1.169-0.965,2.476c0.621,1.308-0.619,2.273-0.619,2.273c2.916-2.228,5.504,2.749,5.158,5.575
			c-0.332,2.769,0.035,4.699,0.049,4.758l0.004,0.004l-0.006,0.002l0.002,0.002l-0.004-0.003c-0.063-0.011-1.992-0.376-4.768-0.041
			c-2.82,0.341-7.795-2.249-5.572-5.161C1127.355,849.177,1126.396,850.411,1125.084,849.794L1125.084,849.794z"/>
		<path d="M1110.014,815.193c-3.162,1.148-1.223,9.81,5.877,17.445c-7.631-7.106-16.291-9.048-17.441-5.881
			c-1.236,3.396,5.02,5.945,5.02,5.945c-9.875-0.466-18.596-4.255-18.596-4.255c-13.355-5.945-7.188-14.273-7.188-14.273
			c-3.227,8.178,5.797,12.884,5.797,12.884c-4.479-3.854-2.938-7.87,0.152-8.331c3.09-0.468,2.162-2.469,2.391-4.705
			c0.23-2.235,5.713-0.157,5.713-0.157c-3.395-9.415-14.898-7.332-18.52,0.151c-3.627,7.488,4.785,14.047,4.785,14.047
			c-17.139-2.464-25.936-14.809-24.701-22.693c1.232-7.861,7.725-11.727,11.969-10.106c4.234,1.625,3.695,4.479,3.695,4.479
			c-7.25-2.933-8.754,8.688-1.348,9.611c7.414,0.918,12.039-12.039,1.391-17.359c-10.654-5.331-23.383,8.557-16.553,23.031
			c3.779,8.01,12.199,13.182,22.467,16.563c-9.461-0.757-16.508,6.95-14.539,12.78c2.381,7,9.152,6.367,10.422,2.781
			c1.273-3.596-2.434-4.748-2.434-4.748s-4.512-0.002-0.058-5.381c3.438-4.152,9.045-4.213,11.428-4.018
			c7.029,1.863,14.654,3.027,22.107,3.783c17.023,1.718,28.723,10.979,32.277,14.13c0.367,0.368,0.738,0.723,1.123,1.091
			c0,0-0.176-0.176-0.475-0.484c0.316,0.292,0.492,0.469,0.492,0.469c-0.371-0.383-0.729-0.751-1.092-1.125
			c-3.152-3.555-12.408-15.256-14.131-32.276c-0.756-7.452-1.918-15.077-3.783-22.107c-0.195-2.382-0.133-7.991,4.018-11.429
			c5.385-4.457,5.383,0.06,5.383,0.06s1.152,3.708,4.75,2.431c3.586-1.27,4.223-8.043-2.781-10.422
			c-5.828-1.972-13.539,5.082-12.785,14.545c-3.385-10.264-8.553-18.689-16.563-22.471c-14.473-6.829-28.365,5.9-23.035,16.559
			c5.322,10.647,18.291,6.01,17.363-1.394c-0.928-7.402-12.545-5.901-9.615,1.354c0,0-2.852,0.535-4.473-3.703
			c-1.615-4.248,2.24-10.732,10.105-11.969c7.881-1.23,20.229,7.565,22.697,24.697c0,0-6.564-8.406-14.049-4.783
			c-7.486,3.625-9.572,15.131-0.16,18.529c0,0-2.072-5.488,0.162-5.72c2.238-0.229,4.24,0.696,4.705-2.39
			c0.459-3.088,4.477-4.633,8.338-0.158c0,0-4.707-9.025-12.889-5.791c0,0,8.328-6.17,14.277,7.181c0,0,3.781,8.729,4.248,18.603
			C1115.959,820.212,1113.406,813.96,1110.014,815.193L1110.014,815.193z M1127.148,843.896
			c-15.881-14.986-22.986-16.212-22.986-16.212c3.465-0.284,12.162,5.733,13.289,6.526c0.035,0.036,0.068,0.069,0.105,0.106
			c0,0-0.016-0.027-0.041-0.053c0.035,0.014,0.059,0.035,0.059,0.035c-0.037-0.035-0.07-0.068-0.107-0.105
			c-0.785-1.133-6.811-9.822-6.531-13.282C1110.936,820.91,1112.16,828.017,1127.148,843.896L1127.148,843.896z"/>
		<path d="M1042.107,778.586c6.197-4.198,16.781-0.27,21.863,2.056l0.021,0.021c0.004-0.009,0-0.012-0.004-0.016
			c0.004,0.004,0.008,0.007,0.016,0.004l-0.021-0.021c-2.324-5.082-6.254-15.666-2.055-21.863c6.521-9.63,12.582-0.621,17.393-7.768
			c0,0,2.02-5.273-3.266-6.984c-2.553-0.832-10.084-1.714-15.838,3.883c-4.705,4.576-9.344,12.438-3.703,25.276
			c-12.836-5.643-20.699-1.003-25.277,3.704c-5.598,5.754-4.711,13.279-3.887,15.842c1.711,5.285,6.99,3.259,6.99,3.259
			C1041.486,791.169,1032.475,785.112,1042.107,778.586L1042.107,778.586z M1057.277,773.948l0.016,0.016
			c0.004-0.008,0-0.012-0.002-0.015c0.002,0.003,0.006,0.007,0.014,0.003l-0.016-0.016c-1.537-4.857-3.484-14.497,2.158-21.696
			c0,0-6.33,12.169,1.068,24.935c-12.766-7.398-24.928-1.076-24.928-1.076C1042.781,770.463,1052.42,772.411,1057.277,773.948
			L1057.277,773.948z"/>
		<g>
			<path d="M1014.15,856.952c3.32,7.981-0.885,13.518-0.885,13.518c3.207-7.021-2.158-19.419-2.158-19.419s0.746,4.722-3.898,9.687
				c-4.654,4.98-1.449,9.91,1.135,12.704c2.588,2.796-1.025,5.23-1.025,5.23c12.023-1.866,11.877-15.937,8.244-21.82
				c-3.635-5.883-2.602-11.351-2.602-11.351S1010.834,848.974,1014.15,856.952L1014.15,856.952z"/>
			<path d="M1043.402,808.852c0.531,19.758,9.621,13.231,11.816,20.512c2.197,7.273,6.066,3.104,6.066,3.104
				s-4.484,10.439-18.494,8.106s-19.719-23.138-2.838-41.546c0,0-14.43,17.875-5.301,33.406c0,0-8.35-15.854,9.539-38.113
				c0,0-16.943,8.633-20.098,29.335c-3.156,20.693,4.373,22.827-3.602,30.839c0,0,0.668-1.529-1.961-2.797
				c-2.623-1.269-5.514-4.795-4.088-11.549c0,0,0.301,6.109,4.186,7.856c0,0-4.508-3.612-3.057-12.571
				c0,0-5.861,25.044-24.686,28.374c-18.838,3.323-25.041-7.938-25.107-14.607c-0.068-6.667,1.736-8.927-2.418-10.859
				c0,0,11.795-3.762,14.113,3.68c2.324,7.442,0.103,16.589,9.523,16.924c0,0-7.961,2.84-10.846-8.828c0,0-0.736,5.07,3.104,8.148
				c3.846,3.075,16.324,5.835,26.855-7.642c7.996-10.222,10.744-24.025,10.744-24.025s-4.457,1.123-6.748,9.816
				c-2.303,8.692-6.025,13.921-13.102,12.743c-7.078-1.179-6.443,2.614-6.443,2.614s-4.426-3.162-1.447-10.422
				c2.979-7.259,15.461-6.629,20.504-10.777c0,0-3.119,5.172-12.519,6.756c0,0,8.193,2.677,14.846-8.489
				c0,0-11.057,6.826-22.924-0.078c-11.867-6.908-11.639-23.741-0.738-27.484c10.904-3.741,22.617,7.286,13.334,16.144
				c0,0,3.158-5.455-0.314-5.963c-3.479-0.5-2.852,5.354-8.252,3.83c-5.398-1.523-7.197,4.725-3.645,8.789
				c0,0-5.459-3.16-1.754-10.313c3.703-7.151,12.447-3.438,12.447-3.438s-9.047-5.841-13.656,3.116
				c-4.797,9.286,5.453,16.918,15.498,16.015c10.045-0.903,18.434-9.751,24.299-20.583c5.865-10.832,19.158-22.818,38.152-25.23
				C1064.393,783.644,1042.879,789.101,1043.402,808.852L1043.402,808.852z"/>
		</g>
		<g>
			<path d="M1140.174,730.93c7.98,3.319,13.518-0.886,13.518-0.886c-7.021,3.208-19.42-2.158-19.42-2.158s4.721,0.746,9.688-3.898
				c4.981-4.653,9.908-1.448,12.703,1.137c2.795,2.586,5.23-1.026,5.23-1.026c-1.867,12.023-15.936,11.877-21.82,8.243
				c-5.883-3.634-11.35-2.602-11.35-2.602S1132.195,727.614,1140.174,730.93L1140.174,730.93z"/>
			<path d="M1092.072,760.181c19.758,0.531,13.232,9.622,20.514,11.818c7.273,2.197,3.104,6.066,3.104,6.066
				s10.439-4.486,8.105-18.495c-2.332-14.01-23.137-19.72-41.547-2.839c0,0,17.877-14.428,33.406-5.301
				c0,0-15.852-8.348-38.111,9.539c0,0,8.631-16.943,29.334-20.098c20.693-3.154,22.826,4.374,30.84-3.601
				c0,0-1.531,0.667-2.797-1.962c-1.27-2.623-4.797-5.514-11.551-4.088c0,0,6.111,0.301,7.857,4.187c0,0-3.611-4.508-12.572-3.058
				c0,0,25.045-5.86,28.375-24.686c3.322-18.837-7.938-25.039-14.605-25.107c-6.668-0.067-8.928,1.736-10.859-2.418
				c0,0-3.762,11.795,3.68,14.115c7.441,2.322,16.588,0.102,16.922,9.522c0,0,2.842-7.962-8.826-10.847c0,0,5.07-0.736,8.146,3.104
				c3.074,3.846,5.834,16.324-7.643,26.855c-10.221,7.998-24.023,10.744-24.023,10.744s1.123-4.455,9.816-6.748
				c8.691-2.301,13.92-6.023,12.742-13.102c-1.178-7.076,2.615-6.443,2.615-6.443s-3.162-4.426-10.422-1.447
				s-6.629,15.463-10.777,20.505c0,0,5.17-3.12,6.754-12.52c0,0,2.678,8.193-8.488,14.848c0,0,6.826-11.059-0.078-22.924
				c-6.908-11.868-23.742-11.641-27.484-0.74c-3.74,10.904,7.285,22.617,16.145,13.335c0,0-5.455,3.158-5.965-0.315
				c-0.5-3.477,5.355-2.852,3.832-8.25c-1.523-5.4,4.725-7.199,8.789-3.646c0,0-3.16-5.459-10.313-1.754
				c-7.152,3.705-3.439,12.447-3.439,12.447s-5.842-9.045,3.115-13.656c9.287-4.796,16.92,5.453,16.016,15.499
				c-0.904,10.045-9.75,18.435-20.584,24.299c-10.832,5.864-22.818,19.157-25.229,38.151
				C1066.865,781.171,1072.322,759.658,1092.072,760.181L1092.072,760.181z"/>
		</g>
	</g>
	<rect x="223.045" y="65.851" width="743.603" height="3.468"/>
	<rect x="65.788" y="220.192" width="3.469" height="465.539"/>
	<rect x="222.915" y="837.565" width="744.533" height="3.469"/>
	<rect x="1120.637" y="220.502" width="3.469" height="465.54"/>
</g>
<g>
	<g>
		<path style="fill:#231F20;" d="M1005.193,889.011c-3.928,0-7.396-2.363-8.839-6.021c-1.075-2.73-0.827-5.788,0.648-8.3
			c-0.322-0.614-0.612-1.234-0.865-1.856c-1.155,0.34-2.332,0.616-3.511,0.824c-2.833,0.499-5.585,0.752-8.181,0.752
			c-17.617,0-27.575-11.602-28.588-23.373H234.064c-1.013,11.771-10.972,23.373-28.588,23.373c-2.597,0-5.348-0.253-8.177-0.751
			c-1.182-0.209-2.36-0.485-3.515-0.825c-0.253,0.622-0.543,1.242-0.867,1.856c1.475,2.511,1.723,5.568,0.648,8.298
			c-1.441,3.658-4.911,6.022-8.839,6.022c-0.487,0-0.978-0.038-1.46-0.113l-2.193-0.34c-7.6-1.18-13.496-5.541-16.602-12.28
			c-2.531-5.494-2.535-10.904-2.036-14.63l-0.079-0.078c-5.183-5.209-6.438-9.896-6.686-13.345
			c-2.165,1.069-4.477,1.813-6.895,2.218c-3.779,0.63-7.383,0.649-10.977-0.037c-3.008,5.801-8.518,9.371-14.551,9.371
			c-6.146-0.004-11.596-3.736-13.561-9.287c-0.811-2.284-1.034-4.64-0.666-6.899c-5.877,1.354-12.42,2.388-19.939,3.15
			c-3.699,0.373-7.388,1.217-10.975,2.511c-0.247,2.473-1.083,4.909-2.382,6.927l-0.781,1.214c-1.827,2.843-4.987,4.482-8.388,4.355
			c-3.219,1.995-7.299,2.956-10.794,2.518c-0.725-0.089-1.699-0.046-1.841-0.025c-1.547,0.273-2.927,0.184-4.289-0.202l-0.882-0.247
			c-3.159-0.89-5.602-3.299-6.535-6.444c-0.577-1.942-0.513-4.046,0.178-5.949c-0.01-0.186-0.027-0.385-0.052-0.597
			c-0.429-3.507,0.508-7.493,2.511-10.729c-0.147-3.366,1.497-6.559,4.346-8.396l1.23-0.793c0.748-0.489,3.385-2.05,7.014-2.406
			c1.277-3.559,2.112-7.22,2.483-10.893c0.761-7.489,1.793-14.029,3.146-19.934c-2.232,0.358-4.607,0.137-6.898-0.674
			c-5.594-1.983-9.327-7.473-9.287-13.659c0.04-6.132,3.532-11.489,9.385-14.474c-0.641-3.435-0.645-7.104-0.01-10.917
			c0.402-2.42,1.15-4.733,2.226-6.9c-4.958-0.37-9.12-2.469-13.336-6.664l-0.102-0.102c-1.252,0.163-2.521,0.246-3.778,0.246
			c-12.268,0-21.345-7.408-23.126-18.874l-0.341-2.197c-0.686-4.423,1.743-8.658,5.908-10.301c2.709-1.065,5.83-0.81,8.315,0.657
			c0.61-0.316,1.227-0.601,1.848-0.85c-0.342-1.158-0.621-2.343-0.832-3.534c-2.507-14.214,1.735-22.94,5.737-27.757
			c4.284-5.161,10.581-8.486,17.003-9.022V234.322c-6.43-0.544-12.728-3.869-17.005-9.021c-4-4.816-8.243-13.541-5.736-27.75
			c0.21-1.191,0.489-2.375,0.831-3.533c-0.622-0.251-1.241-0.536-1.851-0.855c-2.486,1.465-5.596,1.723-8.31,0.653
			c-4.165-1.642-6.593-5.878-5.907-10.299l0.34-2.194c1.78-11.467,10.857-18.876,23.124-18.876c1.254,0,2.524,0.083,3.78,0.246
			l0.087-0.087c4.235-4.214,8.409-6.317,13.35-6.682c-1.076-2.165-1.823-4.478-2.226-6.898c-0.636-3.814-0.631-7.482,0.011-10.917
			c-5.854-2.985-9.346-8.342-9.386-14.47c-0.04-6.19,3.692-11.681,9.284-13.661c2.292-0.812,4.671-1.029,6.903-0.676
			c-1.353-5.872-2.385-12.412-3.148-19.93c-0.372-3.674-1.207-7.336-2.484-10.895c-3.442-0.335-6.006-1.763-6.986-2.389l-1.256-0.81
			c-2.849-1.836-4.493-5.03-4.347-8.397c-2.004-3.236-2.94-7.232-2.508-10.76c0.018-0.144,0.03-0.284,0.04-0.417
			c-0.69-1.82-0.804-3.847-0.32-5.733c0.83-3.236,3.339-5.827,6.546-6.762l0.926-0.271c1.359-0.396,2.799-0.482,4.181-0.257
			l0.231,0.038c0.068,0.01,1.045,0.063,1.846-0.035c3.548-0.429,7.556,0.539,10.76,2.523c3.384-0.14,6.56,1.512,8.389,4.354
			l0.786,1.221c1.309,2.003,2.15,4.442,2.397,6.927c3.577,1.289,7.258,2.131,10.953,2.503c7.492,0.761,14.036,1.793,19.942,3.148
			c-0.367-2.259-0.143-4.615,0.669-6.902c1.966-5.551,7.414-9.28,13.559-9.28c6.038,0,11.549,3.57,14.553,9.371
			c3.581-0.687,7.169-0.67,10.974-0.037c2.417,0.402,4.73,1.146,6.896,2.216c0.248-3.447,1.499-8.131,6.67-13.326l0.096-0.096
			c-0.499-3.725-0.496-9.134,2.036-14.628c3.106-6.741,9.001-11.103,16.599-12.282l2.194-0.341c0.482-0.075,0.975-0.113,1.463-0.113
			c3.927,0,7.396,2.363,8.838,6.019c1.077,2.73,0.829,5.789-0.648,8.301c0.324,0.614,0.613,1.234,0.866,1.856
			c1.152-0.339,2.329-0.615,3.512-0.824c2.831-0.5,5.583-0.753,8.181-0.753c17.567,0,27.535,11.569,28.582,23.306h721.806
			c1.047-11.737,11.015-23.306,28.583-23.306c2.597,0,5.348,0.253,8.177,0.752c1.186,0.21,2.363,0.487,3.514,0.825
			c0.253-0.622,0.543-1.242,0.866-1.856c-1.476-2.51-1.724-5.568-0.648-8.299c1.44-3.657,4.909-6.02,8.837-6.02
			c0.492,0,0.984,0.038,1.463,0.113l2.194,0.34c7.598,1.18,13.493,5.542,16.6,12.281c2.531,5.494,2.534,10.903,2.036,14.629
			l0.081,0.082c5.182,5.206,6.436,9.893,6.684,13.341c2.168-1.071,4.481-1.815,6.897-2.217c3.806-0.633,7.403-0.648,10.975,0.036
			c3.009-5.8,8.52-9.37,14.551-9.37c6.145,0,11.594,3.731,13.562,9.284c0.811,2.285,1.034,4.64,0.665,6.9
			c5.878-1.354,12.42-2.387,19.938-3.149c3.7-0.373,7.385-1.216,10.963-2.506c0.251-2.495,1.104-4.952,2.43-6.982l0.748-1.163
			c1.827-2.843,5.023-4.5,8.389-4.354c3.206-1.984,7.215-2.952,10.758-2.523c0.796,0.096,1.745,0.048,1.881,0.03
			c1.019-0.181,2.077-0.192,3.08-0.037c0.585,0.074,1.194,0.213,1.785,0.411l0.705,0.236c2.99,1.002,5.282,3.411,6.132,6.445
			c0.531,1.89,0.468,3.861-0.183,5.713c0.01,0.203,0.026,0.426,0.056,0.664c0.429,3.515-0.509,7.502-2.512,10.735
			c0.146,3.367-1.498,6.561-4.347,8.397l-1.229,0.792c-0.989,0.633-3.566,2.071-7.015,2.407c-1.277,3.559-2.112,7.22-2.483,10.892
			c-0.76,7.49-1.791,14.03-3.146,19.934c2.24-0.356,4.613-0.137,6.899,0.674c5.593,1.981,9.325,7.471,9.287,13.662
			c-0.042,6.131-3.534,11.488-9.387,14.471c0.642,3.438,0.646,7.107,0.01,10.917c-0.401,2.417-1.148,4.731-2.226,6.898
			c4.958,0.371,9.12,2.469,13.337,6.665l0.103,0.102c1.257-0.163,2.525-0.246,3.778-0.246c12.267,0,21.344,7.409,23.125,18.875
			l0.34,2.198c0.686,4.423-1.743,8.658-5.906,10.299c-2.718,1.07-5.829,0.811-8.312-0.654c-0.61,0.318-1.229,0.604-1.851,0.854
			c0.341,1.157,0.62,2.34,0.83,3.529c2.506,14.212-1.736,22.938-5.736,27.755c-4.294,5.171-10.602,8.498-17.035,9.025v438.302
			c6.44,0.537,12.749,3.862,17.035,9.022c4,4.818,8.242,13.545,5.736,27.752c-0.209,1.186-0.488,2.373-0.832,3.539
			c0.615,0.247,1.228,0.528,1.832,0.842c2.485-1.475,5.59-1.74,8.317-0.674c4.175,1.637,6.611,5.874,5.925,10.306l-0.344,2.215
			c-1.781,11.467-10.858,18.876-23.125,18.876c-1.258,0-2.526-0.083-3.779-0.246l-0.086,0.086
			c-4.236,4.215-8.412,6.317-13.352,6.683c1.076,2.166,1.824,4.479,2.227,6.897c0.634,3.812,0.63,7.479-0.012,10.917
			c5.853,2.982,9.345,8.339,9.387,14.469c0.038,6.192-3.694,11.683-9.285,13.662c-2.286,0.813-4.666,1.033-6.903,0.676
			c1.352,5.863,2.384,12.402,3.148,19.929c0.371,3.675,1.206,7.338,2.484,10.897c3.635,0.359,6.312,1.946,7.078,2.447l1.164,0.75
			c2.851,1.837,4.495,5.03,4.349,8.399c2.003,3.235,2.938,7.232,2.506,10.758c-0.033,0.276-0.05,0.532-0.058,0.763
			c0.63,1.873,0.659,3.935,0.078,5.825c-0.89,2.896-3.131,5.212-5.996,6.197l-0.654,0.225c-0.842,0.287-1.707,0.456-2.572,0.503
			c-0.7,0.065-1.607,0.03-2.398-0.11c-0.073-0.004-1.06-0.06-1.855,0.036c-0.529,0.066-1.127,0.103-1.724,0.103
			c-3.067,0-6.34-0.954-9.034-2.625c-3.382,0.12-6.559-1.514-8.385-4.355l-0.787-1.223c-1.297-2.011-2.131-4.445-2.379-6.918
			c-3.586-1.294-7.273-2.138-10.971-2.511c-7.486-0.758-14.03-1.79-19.941-3.146c0.367,2.259,0.143,4.614-0.668,6.901
			c-1.966,5.552-7.415,9.281-13.56,9.281c-6.036,0-11.547-3.57-14.551-9.371c-3.575,0.686-7.201,0.67-10.979,0.035
			c-2.415-0.401-4.727-1.146-6.891-2.216c-0.248,3.447-1.5,8.132-6.671,13.327l-0.095,0.095c0.498,3.726,0.495,9.135-2.036,14.628
			c-3.107,6.741-9.001,11.102-16.6,12.283l-2.195,0.34C1006.175,888.973,1005.683,889.011,1005.193,889.011z M997.361,870.346
			l0.323,0.925c0.346,0.991,0.8,1.99,1.35,2.967l0.303,0.54l-0.348,0.512c-1.394,2.055-1.683,4.66-0.773,6.969
			c1.138,2.887,3.877,4.753,6.978,4.753c0.386,0,0.774-0.03,1.154-0.09l2.196-0.34c6.914-1.074,12.273-5.031,15.09-11.143
			c2.44-5.296,2.327-10.533,1.804-13.993l-0.076-0.499l0.803-0.805c5.463-5.488,6.151-10.127,6.142-13.555l-0.005-1.742l1.507,0.874
			c2.362,1.371,4.941,2.297,7.665,2.75c3.799,0.636,7.396,0.613,10.991-0.174l0.78-0.171l0.339,0.724
			c2.58,5.508,7.597,8.93,13.091,8.93c5.299,0,9.99-3.194,11.675-7.949c0.864-2.441,0.956-4.963,0.263-7.291l-0.496-1.669
			l1.692,0.412c6.228,1.52,13.174,2.655,21.236,3.471c4.074,0.411,8.134,1.369,12.067,2.848l0.609,0.229l0.037,0.649
			c0.136,2.357,0.888,4.704,2.116,6.609l0.787,1.224c1.491,2.319,4.128,3.645,6.886,3.423l0.339-0.027l0.285,0.186
			c2.395,1.554,5.47,2.481,8.228,2.481c0.514,0,1.025-0.03,1.478-0.088c1.009-0.12,2.172-0.054,2.372-0.03
			c0.734,0.127,1.348,0.155,1.983,0.095c0.72-0.039,1.403-0.173,2.069-0.399l0.651-0.224c2.262-0.778,4.032-2.607,4.734-4.894
			c0.474-1.542,0.434-3.227-0.112-4.744l-0.063-0.174l0.004-0.185c0.007-0.33,0.026-0.716,0.077-1.14
			c0.39-3.18-0.499-6.81-2.378-9.711l-0.184-0.285l0.026-0.338c0.219-2.758-1.091-5.401-3.418-6.9l-1.17-0.754
			c-0.712-0.467-3.288-1.99-6.76-2.178l-0.653-0.036l-0.229-0.612c-1.462-3.908-2.411-7.943-2.82-11.994
			c-0.824-8.108-1.96-15.049-3.473-21.218l-0.413-1.688l1.667,0.491c2.279,0.672,4.839,0.594,7.295-0.276
			c4.791-1.696,7.986-6.424,7.954-11.765c-0.038-5.579-3.38-10.443-8.938-13.012l-0.729-0.337l0.17-0.783
			c0.739-3.41,0.789-7.09,0.15-10.938c-0.454-2.724-1.383-5.303-2.762-7.664l-0.879-1.504h1.742c5.129,0,9.304-1.898,13.584-6.156
			l0.791-0.791l0.498,0.073c1.318,0.195,2.66,0.294,3.988,0.294c11.227,0,19.527-6.744,21.148-17.183l0.344-2.215
			c0.542-3.498-1.382-6.845-4.678-8.137c-2.31-0.902-4.949-0.593-6.98,0.795l-0.51,0.349l-0.54-0.3
			c-0.968-0.537-1.96-0.982-2.95-1.32l-0.934-0.319l0.308-0.938c0.447-1.368,0.801-2.775,1.05-4.183
			c2.372-13.453-1.576-21.634-5.307-26.127c-4.142-4.987-10.324-8.112-16.536-8.36l-0.96-0.038V232.423l0.962-0.037
			c6.203-0.237,12.384-3.363,16.534-8.362c3.73-4.493,7.679-12.673,5.306-26.13c-0.249-1.412-0.602-2.815-1.047-4.17l-0.308-0.937
			l0.932-0.321c0.996-0.343,1.994-0.792,2.966-1.335l0.539-0.301l0.511,0.348c2.028,1.38,4.673,1.684,6.975,0.778
			c3.287-1.295,5.205-4.64,4.663-8.132l-0.34-2.198c-1.621-10.437-9.923-17.181-21.148-17.181c-1.322,0-2.664,0.099-3.986,0.295
			l-0.497,0.074l-0.809-0.807c-4.27-4.247-8.44-6.142-13.524-6.142h-1.742l0.834-1.504c1.38-2.361,2.308-4.939,2.76-7.662
			c0.642-3.848,0.592-7.528-0.147-10.939l-0.17-0.784l0.729-0.336c5.559-2.568,8.9-7.434,8.938-13.015
			c0.032-5.339-3.164-10.066-7.955-11.763c-2.452-0.869-5.01-0.946-7.29-0.275l-1.665,0.49l0.411-1.686
			c1.517-6.218,2.651-13.16,3.469-21.224c0.409-4.048,1.358-8.082,2.82-11.989l0.229-0.613l0.654-0.035
			c3.303-0.176,5.788-1.557,6.703-2.143l1.226-0.79c2.325-1.499,3.635-4.143,3.416-6.899l-0.026-0.338l0.185-0.285
			c1.878-2.9,2.77-6.521,2.384-9.686c-0.048-0.379-0.069-0.731-0.078-1.037l-0.005-0.196l0.068-0.184
			c0.565-1.506,0.635-3.119,0.2-4.664c-0.671-2.396-2.48-4.298-4.841-5.089l-0.705-0.236c-0.467-0.156-0.947-0.266-1.43-0.327
			c-0.85-0.131-1.658-0.116-2.464,0.028l-0.001-0.003c-0.198,0.039-0.524,0.071-1.091,0.071c-0.449,0-0.908-0.028-1.366-0.083
			c-3.152-0.378-6.879,0.561-9.711,2.395l-0.285,0.184l-0.338-0.027c-2.756-0.214-5.398,1.102-6.891,3.422l-0.752,1.169
			c-1.259,1.927-2.025,4.293-2.163,6.669l-0.037,0.65l-0.609,0.228c-3.925,1.475-7.982,2.432-12.06,2.843
			c-8.1,0.821-15.047,1.958-21.233,3.475l-1.695,0.415l0.499-1.672c0.694-2.331,0.604-4.853-0.26-7.292
			c-1.686-4.756-6.378-7.952-11.677-7.952c-5.49,0-10.506,3.422-13.091,8.93l-0.339,0.723l-0.78-0.171
			c-3.596-0.786-7.163-0.812-10.987-0.175c-2.724,0.453-5.305,1.379-7.67,2.751l-1.507,0.874l0.005-1.742
			c0.01-3.428-0.68-8.069-6.153-13.567l-0.79-0.791l0.076-0.5c0.524-3.461,0.637-8.699-1.804-13.996
			c-2.816-6.111-8.176-10.067-15.09-11.141l-2.195-0.341c-0.378-0.059-0.766-0.089-1.155-0.089c-3.101,0-5.838,1.866-6.976,4.753
			c-0.91,2.31-0.621,4.914,0.772,6.967l0.348,0.512l-0.304,0.54c-0.55,0.977-1.004,1.975-1.35,2.966l-0.323,0.925l-0.932-0.304
			c-1.348-0.44-2.746-0.791-4.154-1.04c-2.714-0.479-5.348-0.722-7.828-0.722c-16.791,0-26.117,11.245-26.65,22.354l-0.046,0.952
			h-725.58l-0.046-0.952c-0.534-11.108-9.86-22.354-26.65-22.354c-2.482,0-5.117,0.243-7.833,0.723
			c-1.404,0.248-2.801,0.598-4.151,1.039l-0.931,0.304l-0.323-0.925c-0.346-0.991-0.801-1.989-1.351-2.966l-0.303-0.54l0.347-0.512
			c1.394-2.055,1.684-4.661,0.773-6.969c-1.138-2.887-3.877-4.752-6.977-4.752c-0.385,0-0.774,0.03-1.156,0.09l-2.195,0.341
			c-6.914,1.073-12.273,5.03-15.089,11.142c-2.44,5.296-2.328,10.533-1.803,13.993l0.075,0.498l-0.802,0.806
			c-5.463,5.489-6.152,10.127-6.142,13.555l0.005,1.743l-1.507-0.875c-2.362-1.372-4.942-2.297-7.668-2.75
			c-3.824-0.636-7.38-0.613-10.987,0.176l-0.781,0.17l-0.339-0.723c-2.58-5.508-7.597-8.93-13.092-8.93
			c-5.299,0-9.99,3.194-11.674,7.948c-0.866,2.442-0.956,4.963-0.263,7.291l0.497,1.67l-1.692-0.413
			c-6.223-1.518-13.17-2.654-21.238-3.473c-4.071-0.41-8.125-1.366-12.05-2.84l-0.61-0.229l-0.037-0.651
			c-0.133-2.366-0.89-4.714-2.129-6.612l-0.79-1.227c-1.493-2.319-4.118-3.642-6.891-3.422l-0.338,0.027l-0.285-0.185
			c-2.828-1.833-6.562-2.768-9.714-2.395c-1.036,0.125-2.258,0.043-2.38,0.027l-0.259-0.042c-1.083-0.176-2.226-0.107-3.298,0.204
			l-0.925,0.271c-2.533,0.738-4.514,2.784-5.169,5.339c-0.397,1.549-0.284,3.217,0.32,4.698l0.084,0.206l-0.011,0.222
			c-0.012,0.237-0.032,0.494-0.064,0.768c-0.39,3.183,0.5,6.813,2.379,9.715l0.185,0.285l-0.027,0.338
			c-0.218,2.756,1.09,5.399,3.416,6.899l1.253,0.808c0.906,0.579,3.376,1.949,6.676,2.125l0.654,0.035l0.229,0.613
			c1.461,3.907,2.41,7.941,2.82,11.992c0.822,8.099,1.958,15.04,3.472,21.219l0.414,1.688l-1.668-0.492
			c-2.268-0.668-4.833-0.596-7.295,0.276c-4.791,1.697-7.986,6.424-7.952,11.763c0.037,5.579,3.378,10.444,8.938,13.015l0.728,0.336
			l-0.171,0.784c-0.74,3.406-0.791,7.085-0.149,10.936c0.455,2.728,1.383,5.306,2.761,7.664l0.879,1.504H60.13
			c-5.129,0-9.304,1.898-13.583,6.156l-0.793,0.792l-0.498-0.074c-1.322-0.196-2.663-0.295-3.988-0.295
			c-11.227,0-19.528,6.745-21.148,17.183l-0.34,2.194c-0.542,3.492,1.376,6.836,4.664,8.132c2.298,0.904,4.943,0.604,6.974-0.778
			l0.511-0.347l0.539,0.301c0.97,0.542,1.968,0.991,2.965,1.335l0.932,0.321l-0.307,0.936c-0.445,1.356-0.797,2.761-1.047,4.175
			c-2.374,13.455,1.575,21.633,5.305,26.125c4.134,4.979,10.305,8.104,16.508,8.36l0.958,0.039V674.53l-0.96,0.038
			c-6.193,0.246-12.363,3.372-16.504,8.36c-3.731,4.492-7.68,12.672-5.306,26.131c0.25,1.415,0.604,2.821,1.048,4.179l0.307,0.938
			l-0.933,0.32c-0.994,0.341-1.991,0.787-2.963,1.328l-0.539,0.3l-0.51-0.348c-2.033-1.384-4.685-1.684-6.979-0.78
			c-3.288,1.296-5.206,4.641-4.664,8.133l0.341,2.197c1.621,10.437,9.922,17.181,21.149,17.181c1.328,0,2.668-0.099,3.985-0.294
			l0.496-0.073l0.809,0.805c4.27,4.248,8.441,6.143,13.525,6.143h1.742l-0.833,1.504c-1.378,2.36-2.307,4.938-2.761,7.664
			c-0.641,3.851-0.592,7.53,0.148,10.938l0.17,0.783l-0.728,0.337c-5.56,2.568-8.901,7.435-8.938,13.017
			c-0.034,5.336,3.163,10.063,7.954,11.762c2.459,0.87,5.016,0.945,7.289,0.274l1.665-0.492l-0.411,1.688
			c-1.515,6.219-2.65,13.161-3.469,21.224c-0.409,4.05-1.358,8.084-2.819,11.99l-0.229,0.612l-0.653,0.036
			c-3.561,0.192-6.203,1.813-6.696,2.137l-1.235,0.797c-2.325,1.499-3.634,4.142-3.415,6.896l0.027,0.338l-0.185,0.284
			c-1.878,2.902-2.769,6.522-2.382,9.686c0.042,0.352,0.064,0.673,0.074,0.959l0.007,0.206l-0.075,0.192
			c-0.601,1.544-0.672,3.27-0.201,4.857c0.737,2.484,2.666,4.386,5.159,5.088l0.883,0.248c1.081,0.305,2.229,0.363,3.363,0.164
			l0.001,0.003c0.2-0.044,0.533-0.079,1.132-0.079c0.446,0,0.909,0.027,1.337,0.079c3.128,0.396,6.901-0.546,9.742-2.389
			l0.285-0.185l0.338,0.026c2.777,0.219,5.398-1.104,6.889-3.423l0.782-1.215c1.231-1.911,1.984-4.261,2.119-6.618l0.038-0.649
			l0.609-0.229c3.935-1.479,7.997-2.437,12.072-2.848c8.101-0.821,15.047-1.959,21.234-3.476l1.695-0.416l-0.499,1.673
			c-0.695,2.33-0.605,4.852,0.26,7.29c1.683,4.755,6.375,7.951,11.676,7.955c5.491,0,10.507-3.422,13.09-8.931l0.339-0.723
			l0.78,0.171c3.62,0.788,7.194,0.811,10.989,0.176c2.727-0.455,5.307-1.381,7.668-2.752l1.507-0.874l-0.005,1.742
			c-0.009,3.429,0.682,8.069,6.155,13.569l0.789,0.785l-0.076,0.501c-0.524,3.462-0.638,8.701,1.803,13.999
			c2.816,6.11,8.176,10.067,15.092,11.141l2.194,0.34c0.382,0.06,0.77,0.09,1.153,0.09c3.101,0,5.84-1.866,6.978-4.755
			c0.909-2.309,0.62-4.913-0.773-6.967l-0.348-0.513l0.304-0.539c0.549-0.977,1.003-1.975,1.35-2.966l0.323-0.926l0.932,0.305
			c1.355,0.442,2.752,0.792,4.154,1.04c2.715,0.478,5.35,0.721,7.83,0.721c16.836,0,26.152-11.277,26.652-22.418l0.043-0.955h725.58
			l0.043,0.955c0.499,11.141,9.815,22.418,26.652,22.418c2.479,0,5.115-0.242,7.833-0.721c1.398-0.248,2.795-0.598,4.15-1.04
			L997.361,870.346z M979.357,831.585l-3.17-1.128c-2.785-0.991-6.057-1.291-9.531-0.901l-0.11,0.006H223.337l-0.054-0.006
			c-3.564-0.391-6.756-0.093-9.548,0.901l-3.169,1.127l2.039-2.676c3.899-5.117,5.709-11.366,5.095-17.597
			c-0.816-8.288-5.974-15.034-13.46-17.605c-2.292-0.786-4.676-1.185-7.086-1.185c-8.514,0-16.176,4.848-19.065,12.063
			c-0.883,2.203-1.267,4.483-1.141,6.776l0.18,3.269l-1.976-2.611c-1.549-2.049-3.04-4.39-4.431-6.957
			c-0.801-1.48-1.729-2.987-2.757-4.479l-0.412-0.597l0.439-0.576c0.957-1.257,1.698-2.685,2.203-4.245
			c1.609-5.007,2.206-15.671-5.77-23.87c-5.411-5.562-12.14-8.571-19.461-8.703l-0.965-0.018l-0.017-0.965
			c-0.127-7.315-3.133-14.041-8.694-19.451c-5.747-5.589-12.399-6.762-16.967-6.762c-2.478,0-4.935,0.356-6.917,1.002
			c-1.611,0.522-3.049,1.262-4.276,2.197l-0.574,0.438l-0.597-0.408c-1.445-0.987-2.897-1.878-4.317-2.647
			c-2.584-1.398-4.93-2.893-6.974-4.441l-2.616-1.982l3.277,0.188c0.288,0.017,0.578,0.023,0.867,0.023
			c5.428,0,10.528-2.781,13.992-7.63c4.043-5.662,5.093-13.017,2.809-19.675c-2.831-8.246-10.657-13.574-19.938-13.574
			c-5.416,0-10.829,1.848-15.243,5.202l-2.647,2.013l1.099-3.139c0.849-2.428,1.185-5.184,0.996-8.191l-0.003-462.493
			c0.191-3.087-0.146-5.856-1.002-8.296l-1.102-3.143l2.651,2.017c4.416,3.359,9.832,5.209,15.251,5.209
			c9.281,0,17.107-5.329,19.938-13.575c2.284-6.655,1.233-14.01-2.811-19.674c-3.648-5.107-9.162-7.936-14.858-7.605l-3.277,0.187
			l2.616-1.982c2.047-1.552,4.394-3.046,6.974-4.443c1.421-0.77,2.873-1.661,4.315-2.647l0.597-0.409l0.575,0.439
			c1.224,0.936,2.657,1.673,4.26,2.193c1.995,0.649,4.457,1.007,6.934,1.007c4.568,0,11.22-1.173,16.968-6.763
			c5.556-5.406,8.562-12.127,8.692-19.438l0.017-0.965l0.965-0.017c7.306-0.125,14.035-3.14,19.461-8.718
			c7.977-8.202,7.375-18.875,5.762-23.889c-0.503-1.553-1.241-2.979-2.192-4.234l-0.437-0.576l0.41-0.595
			c1.025-1.487,1.951-2.991,2.752-4.471c1.393-2.572,2.884-4.913,4.431-6.958l1.975-2.61l-0.179,3.269
			c-0.126,2.293,0.258,4.573,1.14,6.776c2.89,7.215,10.551,12.063,19.065,12.063c2.413,0,4.797-0.398,7.087-1.183
			c7.485-2.57,12.643-9.316,13.459-17.604c0.614-6.231-1.196-12.481-5.096-17.598l-2.04-2.677l3.171,1.128
			c1.995,0.71,4.211,1.07,6.587,1.07c1.124,0,2.34-0.081,3.516-0.235l0.129-0.008l741.991-0.006l0.065,0.008
			c3.781,0.489,7.208,0.223,10.166-0.829l3.17-1.128l-2.04,2.676c-3.899,5.115-5.709,11.365-5.096,17.597
			c0.816,8.288,5.976,15.034,13.465,17.605c2.285,0.785,4.669,1.182,7.083,1.182c8.514,0,16.175-4.847,19.064-12.06
			c0.884-2.206,1.268-4.485,1.142-6.776l-0.181-3.269l1.976,2.61c1.545,2.039,3.035,4.38,4.431,6.958
			c0.801,1.477,1.727,2.981,2.754,4.472l0.41,0.595l-0.437,0.576c-0.954,1.26-1.695,2.69-2.201,4.253
			c-1.608,5.006-2.204,15.669,5.771,23.869c5.411,5.563,12.141,8.572,19.46,8.702l0.966,0.017l0.017,0.965
			c0.127,7.317,3.134,14.043,8.694,19.452c5.746,5.589,12.398,6.763,16.967,6.763c2.479,0,4.936-0.356,6.916-1.002
			c1.608-0.52,3.047-1.26,4.278-2.199l0.575-0.438l0.597,0.408c1.436,0.984,2.888,1.875,4.315,2.648
			c2.578,1.396,4.925,2.89,6.973,4.443l2.617,1.983l-3.278-0.188c-0.287-0.017-0.577-0.025-0.866-0.025
			c-5.429,0-10.529,2.781-13.993,7.631c-4.043,5.661-5.093,13.017-2.809,19.676c2.831,8.245,10.658,13.572,19.938,13.572
			c5.421,0,10.839-1.851,15.256-5.213l2.659-2.024l-1.11,3.152c-0.799,2.268-1.148,4.824-1.04,7.596l0.001,463.739
			c-0.109,2.822,0.242,5.387,1.045,7.661l1.113,3.156l-2.662-2.027c-4.418-3.365-9.838-5.218-15.262-5.218
			c-9.28,0-17.107,5.329-19.941,13.577c-2.281,6.654-1.229,14.008,2.813,19.672c3.464,4.849,8.563,7.63,13.991,7.63
			c0.289,0,0.579-0.007,0.866-0.023l3.278-0.188l-2.617,1.983c-2.045,1.551-4.392,3.045-6.974,4.442
			c-1.416,0.767-2.868,1.657-4.315,2.646l-0.598,0.408l-0.574-0.438c-1.224-0.936-2.656-1.673-4.26-2.193
			c-1.996-0.648-4.459-1.006-6.934-1.006c-4.568,0-11.221,1.173-16.967,6.762c-5.561,5.41-8.567,12.136-8.694,19.451l-0.017,0.965
			l-0.966,0.018c-7.321,0.132-14.051,3.142-19.46,8.703c-7.975,8.197-7.375,18.875-5.764,23.892c0.502,1.549,1.24,2.973,2.194,4.229
			l0.438,0.576l-0.411,0.597c-1.025,1.483-1.952,2.988-2.757,4.475c-1.396,2.578-2.886,4.919-4.43,6.957l-1.976,2.609l0.181-3.268
			c0.126-2.291-0.258-4.57-1.142-6.776c-2.89-7.216-10.551-12.063-19.064-12.063c-2.41,0-4.794,0.398-7.086,1.185
			c-7.485,2.57-12.645,9.316-13.462,17.605c-0.613,6.231,1.196,12.48,5.096,17.597L979.357,831.585z M197.153,790.522
			c2.631,0,5.233,0.435,7.735,1.292c8.236,2.828,13.908,10.225,14.802,19.302c0.574,5.827-0.809,11.666-3.918,16.71
			c2.365-0.476,4.917-0.562,7.674-0.265h743.046c2.692-0.294,5.303-0.212,7.659,0.265c-3.108-5.043-4.493-10.882-3.919-16.71
			c0.896-9.078,6.567-16.474,14.803-19.302c2.502-0.857,5.105-1.292,7.735-1.292c9.322,0,17.729,5.353,20.921,13.319
			c0.599,1.497,0.994,3.026,1.181,4.571c0.884-1.336,1.743-2.775,2.569-4.302c0.733-1.354,1.563-2.721,2.471-4.073
			c-0.887-1.285-1.585-2.707-2.08-4.236c-1.749-5.444-2.402-17.022,6.233-25.9c5.551-5.708,12.416-8.902,19.908-9.276
			c0.369-7.484,3.561-14.348,9.268-19.899c6.228-6.057,13.422-7.328,18.361-7.328c2.68,0,5.361,0.392,7.551,1.104
			c1.571,0.51,3.005,1.209,4.271,2.081c1.311-0.872,2.622-1.664,3.907-2.36c1.53-0.828,2.973-1.69,4.313-2.577
			c-5.284-0.62-10.133-3.585-13.533-8.346c-4.418-6.189-5.568-14.22-3.078-21.483c3.116-9.068,11.686-14.928,21.833-14.928
			c4.952,0,9.897,1.428,14.187,4.06c-0.357-1.779-0.498-3.678-0.42-5.671l-0.001-463.661c-0.077-1.958,0.063-3.837,0.417-5.607
			c-4.288,2.631-9.232,4.057-14.183,4.057c-10.148,0-18.717-5.858-21.83-14.923c-2.493-7.269-1.345-15.301,3.073-21.487
			c3.4-4.762,8.249-7.727,13.534-8.347c-1.341-0.887-2.783-1.75-4.312-2.577c-1.295-0.701-2.606-1.494-3.909-2.361
			c-1.272,0.875-2.711,1.576-4.286,2.085c-2.174,0.71-4.851,1.101-7.534,1.101c-4.939,0-12.134-1.271-18.361-7.329
			c-5.706-5.551-8.898-12.414-9.268-19.9c-7.489-0.372-14.355-3.566-19.908-9.275c-8.638-8.88-7.987-20.445-6.241-25.878
			c0.499-1.54,1.199-2.969,2.087-4.259c-0.91-1.357-1.739-2.724-2.468-4.07c-0.827-1.527-1.688-2.966-2.571-4.302
			c-0.187,1.546-0.581,3.075-1.181,4.571c-3.19,7.965-11.598,13.317-20.921,13.317c-2.636,0-5.237-0.434-7.732-1.291
			c-8.238-2.829-13.911-10.225-14.806-19.301c-0.574-5.83,0.81-11.668,3.919-16.711c-2.555,0.515-5.34,0.57-8.322,0.189
			l-741.797,0.006c-1.24,0.159-2.521,0.243-3.71,0.243c-1.582,0-3.104-0.147-4.55-0.439c3.109,5.043,4.493,10.883,3.919,16.712
			c-0.894,9.077-6.565,16.472-14.8,19.3c-2.499,0.857-5.101,1.292-7.736,1.292c-9.324,0-17.731-5.352-20.922-13.318
			c-0.599-1.496-0.994-3.025-1.181-4.571c-0.885,1.339-1.746,2.778-2.571,4.303c-0.73,1.348-1.559,2.714-2.467,4.068
			c0.884,1.286,1.582,2.71,2.078,4.241c1.75,5.441,2.407,17.016-6.232,25.898c-5.567,5.723-12.434,8.923-19.91,9.292
			c-0.374,7.48-3.564,14.337-9.266,19.885c-6.229,6.058-13.424,7.329-18.363,7.329c-2.682,0-5.364-0.393-7.551-1.105
			c-1.571-0.509-3.004-1.208-4.271-2.08c-1.306,0.87-2.618,1.662-3.907,2.36c-1.529,0.828-2.971,1.689-4.312,2.577
			c5.284,0.62,10.131,3.584,13.532,8.346c4.419,6.188,5.568,14.221,3.075,21.486c-3.113,9.067-11.682,14.925-21.83,14.925
			c-4.95,0-9.894-1.426-14.182-4.057c0.393,1.974,0.521,4.094,0.381,6.333l0.003,462.368c0.138,2.181,0.011,4.273-0.378,6.231
			c4.286-2.628,9.228-4.053,14.175-4.053c10.148,0,18.717,5.858,21.83,14.926c2.494,7.267,1.345,15.299-3.073,21.485
			c-3.401,4.762-8.25,7.726-13.535,8.346c1.34,0.887,2.782,1.748,4.313,2.576c1.288,0.698,2.601,1.491,3.909,2.361
			c1.27-0.873,2.707-1.573,4.285-2.085c2.176-0.709,4.853-1.1,7.536-1.1c4.939,0,12.133,1.271,18.362,7.328
			c5.706,5.552,8.898,12.415,9.268,19.899c7.49,0.374,14.355,3.568,19.908,9.276c8.637,8.879,7.986,20.444,6.24,25.878
			c-0.499,1.54-1.199,2.968-2.089,4.256c0.912,1.359,1.741,2.728,2.471,4.076c0.825,1.523,1.685,2.962,2.571,4.302
			c0.188-1.547,0.582-3.075,1.181-4.571C179.422,795.875,187.83,790.522,197.153,790.522z"/>
	</g>
</g>
</svg>
